<?xml version="1.0" standalone="no"?>
<!DOCTYPE svg PUBLIC "-//W3C//DTD SVG 20010904//EN"
 "http://www.w3.org/TR/2001/REC-SVG-20010904/DTD/svg10.dtd">
<svg version="1.0" xmlns="http://www.w3.org/2000/svg"
 width="114.000000pt" height="114.000000pt" viewBox="0 0 114.000000 114.000000"
 preserveAspectRatio="xMidYMid meet">
<metadata>
Created by potrace 1.16, written by Peter Selinger 2001-2019
</metadata>
<g transform="translate(0.000000,114.000000) scale(0.100000,-0.100000)"
fill="#000000" stroke="none">
<path d="M547 988 c-9 -7 -72 -107 -138 -223 -354 -615 -333 -574 -321 -601
l12 -24 468 0 c351 0 471 3 480 12 22 22 12 53 -51 163 -35 61 -137 237 -226
393 -90 155 -167 282 -171 282 -5 0 -14 2 -22 5 -7 3 -21 0 -31 -7z m45 -35
c9 -10 87 -142 174 -293 86 -151 184 -320 215 -375 43 -73 55 -103 47 -112
-16 -20 -906 -19 -914 1 -3 8 35 83 83 168 49 84 151 260 227 391 76 130 141
237 145 237 4 0 15 -8 23 -17z"/>
<path d="M524 736 c-17 -13 -19 -27 -19 -141 0 -114 2 -128 19 -141 33 -24 82
-18 106 13 20 25 21 38 18 134 -2 88 -6 111 -22 128 -22 25 -73 28 -102 7z
m74 -22 c20 -14 22 -23 22 -119 0 -96 -2 -105 -22 -119 -28 -20 -33 -20 -52 0
-23 22 -23 216 0 238 19 20 24 20 52 0z"/>
<path d="M523 378 c-27 -34 -33 -57 -23 -84 21 -55 77 -70 124 -33 33 26 35
75 6 107 -23 25 -91 31 -107 10z m75 -24 c38 -26 23 -84 -22 -84 -23 0 -56 27
-56 47 0 14 35 53 48 53 4 0 18 -7 30 -16z"/>
</g>
</svg>
